HIERARCHY
ROOT Hips
{
    OFFSET 0.000000 0.000000 0.000000
    CHANNELS 6 Xposition Yposition Zposition Zrotation Xrotation Yrotation
    JOINT Spine
    {
        OFFSET -0.000000 8.505030 0.000000
        CHANNELS 3 Zrotation Xrotation Yrotation
        JOINT Spine1
        {
            OFFSET -0.000000 25.070629 0.000000
            CHANNELS 3 Zrotation Xrotation Yrotation
            JOINT Neck
            {
                OFFSET -0.000000 24.967667 2.269788
                CHANNELS 3 Zrotation Xrotation Yrotation
                JOINT Head
                {
                    OFFSET -0.000000 14.520781 -2.074397
                    CHANNELS 3 Zrotation Xrotation Yrotation
                    End Site
                    {
                        OFFSET -0.000000 25.929966 0.000000
                    }
                }
            }
            JOINT LeftShoulder
            {
                OFFSET 4.117346 22.983784 -0.389865
                CHANNELS 3 Zrotation Xrotation Yrotation
                JOINT LeftArm
                {
                    OFFSET 11.957758 0.000000 0.000000
                    CHANNELS 3 Zrotation Xrotation Yrotation
                    JOINT LeftForeArm
                    {
                        OFFSET 31.907600 0.000000 0.000000
                        CHANNELS 3 Zrotation Xrotation Yrotation
                        JOINT LeftHand
                        {
                            OFFSET 28.601147 0.000000 0.000000
                            CHANNELS 3 Zrotation Xrotation Yrotation
                            End Site
                            {
                                OFFSET 15.557981 0.000000 0.000000
                            }
                        }
                    }
                }
            }
            JOINT RightShoulder
            {
                OFFSET -4.061940 22.983784 -0.389865
                CHANNELS 3 Zrotation Xrotation Yrotation
                JOINT RightArm
                {
                    OFFSET -11.957758 0.000000 0.000000
                    CHANNELS 3 Zrotation Xrotation Yrotation
                    JOINT RightForeArm
                    {
                        OFFSET -31.907600 0.000000 0.000000
                        CHANNELS 3 Zrotation Xrotation Yrotation
                        JOINT RightHand
                        {
                            OFFSET -28.601147 0.000000 0.000000
                            CHANNELS 3 Zrotation Xrotation Yrotation
                            End Site
                            {
                                OFFSET -15.557981 0.000000 0.000000
                            }
                        }
                    }
                }
            }
        }
    }
    JOINT LeftUpLeg
    {
        OFFSET 10.371986 0.000000 0.000000
        CHANNELS 3 Zrotation Xrotation Yrotation
        JOINT LeftLeg
        {
            OFFSET -0.000000 -42.486427 0.000000
            CHANNELS 3 Zrotation Xrotation Yrotation
            JOINT LeftFoot
            {
                OFFSET -0.000000 -48.322342 0.000000
                CHANNELS 3 Zrotation Xrotation Yrotation
                JOINT LeftToeBase
                {
                    OFFSET -0.000000 -6.741791 15.557981
                    CHANNELS 3 Zrotation Xrotation Yrotation
                    End Site
                    {
                        OFFSET -0.000000 0.000000 4.148795
                    }
                }
            }
        }
    }
    JOINT RightUpLeg
    {
        OFFSET -10.371986 0.000000 0.000000
        CHANNELS 3 Zrotation Xrotation Yrotation
        JOINT RightLeg
        {
            OFFSET -0.000000 -42.486427 0.000000
            CHANNELS 3 Zrotation Xrotation Yrotation
            JOINT RightFoot
            {
                OFFSET -0.000000 -48.322342 0.000000
                CHANNELS 3 Zrotation Xrotation Yrotation
                JOINT RightToeBase
                {
                    OFFSET -0.000000 -6.741791 15.557981
                    CHANNELS 3 Zrotation Xrotation Yrotation
                    End Site
                    {
                        OFFSET -0.000000 0.000000 4.148795
                    }
                }
            }
        }
    }
}
MOTION
Frames:    7
Frame Time:    0.008333
74.663651    141.012436    98.706078    -2.631769    1.385241    91.993996    -2.171193    -9.457957    1.162917    5.610117    -1.867477    1.433935    -5.089555    26.762009    -0.779531    -0.252159    10.657386    -1.345850    0.270661    3.947074    -4.985320    -74.708900    49.424332    -8.840423    -3.065171    -5.228178    -2.216256    -14.965961    -4.190267    -8.365185    -15.904876    6.685019    -14.507961    67.876205    71.141731    20.473337    0.462111    -11.073584    4.338841    24.209560    -10.916264    0.829091    -0.193197    2.466374    -1.969577    -0.461929    5.775067    -0.305509    1.389327    -6.472040    2.218777    0.000000    0.000000    0.000000    -0.805656    1.782667    -1.592833    2.221632    8.029058    0.145192    0.397168    -10.965604    -10.345325    0.000000    0.000000    0.000000    
74.649887    141.002670    98.722626    -2.647238    1.367654    91.984482    -2.193016    -9.487104    1.145116    5.620420    -1.797368    1.415225    -4.977895    26.567808    -0.711540    -0.417477    10.995953    -1.260898    0.255742    3.923154    -4.970344    -74.682938    49.477787    -8.877923    -3.085212    -5.186858    -2.185510    -14.686944    -4.173022    -8.335178    -15.918664    6.661610    -14.477142    67.733292    70.852463    20.612587    0.778470    -10.882286    4.324946    24.053061    -10.753110    0.755475    -0.153446    2.447607    -1.947967    -0.478127    5.774045    -0.318736    1.391212    -6.493039    2.200006    0.000000    0.000000    0.000000    -0.772017    1.743217    -1.593012    2.212695    8.066084    0.127016    0.367173    -10.982982    -10.336082    0.000000    0.000000    0.000000    
74.663528    141.000717    98.742493    -2.601634    1.363535    91.929474    -2.238869    -9.480714    1.154721    5.650997    -1.722421    1.425268    -5.150165    26.880903    -0.662630    -0.113010    10.524576    -1.229583    0.236262    3.904844    -4.977313    -74.680939    49.522766    -8.875003    -3.091840    -5.136073    -2.117132    -14.638172    -4.129773    -8.290769    -15.907219    6.659800    -14.451073    67.667969    70.855515    20.700903    0.789020    -10.854331    4.207994    24.099417    -10.714612    0.802266    -0.127949    2.539255    -1.877849    -0.490828    5.713521    -0.371720    1.413558    -6.463784    2.228119    0.000000    0.000000    0.000000    -0.742851    1.794263    -1.522279    2.193642    8.057181    0.132548    0.345639    -10.975972    -10.337228    0.000000    0.000000    0.000000    
74.647865    140.991180    98.749954    -2.616861    1.353321    91.924988    -2.245278    -9.490575    1.147589    5.620465    -1.679961    1.416257    -5.119093    26.866819    -0.664877    -0.138167    10.599895    -1.229232    0.265537    3.868808    -4.987256    -74.673828    49.499035    -8.876868    -3.204597    -5.030131    -2.101997    -14.460123    -4.053669    -8.170903    -15.901184    6.623355    -14.436216    67.734756    70.866707    20.665026    0.800823    -10.881279    4.109638    24.013611    -10.749131    0.767834    -0.112927    2.517056    -1.886356    -0.490933    5.709554    -0.365088    1.418296    -6.481855    2.228324    0.000000    0.000000    0.000000    -0.726362    1.759999    -1.522441    2.190937    8.078179    0.155560    0.281396    -10.983603    -10.370036    0.000000    0.000000    0.000000    
74.637276    140.986038    98.758163    -2.620973    1.335415    91.917061    -2.257767    -9.497205    1.141020    5.623744    -1.644488    1.409202    -5.143054    26.896893    -0.717410    -0.167056    10.680876    -1.289321    0.246925    3.864914    -5.003582    -74.697380    49.532730    -8.903709    -3.130886    -5.057801    -1.891181    -14.604606    -4.046962    -8.302130    -15.900364    6.619720    -14.404638    67.785873    70.806602    20.651512    0.829618    -10.849907    3.994401    23.982515    -10.730915    0.706668    -0.088084    2.509200    -1.869179    -0.492332    5.696504    -0.256400    1.410663    -6.493651    2.099752    0.000000    0.000000    0.000000    -0.695312    1.742415    -1.510114    2.178947    8.080309    0.130796    0.289937    -10.980664    -10.344912    0.000000    0.000000    0.000000    
74.626579    140.981476    98.763573    -2.621934    1.323011    91.913544    -2.343932    -9.416890    1.141577    5.731844    -1.750427    1.422125    -5.105609    26.981869    -0.726588    -0.247900    10.723089    -1.303319    0.167070    3.890654    -5.048805    -74.743561    49.505531    -8.869750    -3.112833    -5.040447    -1.728896    -14.560377    -4.039030    -8.217015    -15.849365    6.645981    -14.447344    67.710953    70.766502    20.655777    0.880993    -10.808998    3.886018    23.998518    -10.706090    0.633622    -0.076365    2.507974    -1.870364    -0.492035    5.692019    -0.235996    1.446256    -6.506372    2.093924    0.000000    0.000000    0.000000    -0.681135    1.743405    -1.482022    2.184316    8.060224    0.146921    0.254814    -10.978822    -10.377640    0.000000    0.000000    0.000000    
74.616180    140.978210    98.764053    -2.625612    1.311749    91.906097    -2.349947    -9.425014    1.132237    5.725492    -1.704440    1.411072    -5.084744    27.014015    -0.717905    -0.318087    10.746927    -1.297207    0.168673    3.896877    -5.025645    -74.714989    49.532055    -8.926085    -3.128147    -5.025920    -1.613672    -14.514978    -4.031301    -8.166835    -15.857815    6.649280    -14.426439    67.747597    70.667511    20.669220    0.927347    -10.737217    3.757495    24.067825    -10.642255    0.596269    -0.073007    2.502238    -1.864507    -0.475848    5.683177    -0.262320    1.443898    -6.502676    2.110393    0.000000    0.000000    0.000000    -0.668105    1.731604    -1.483243    2.183146    8.060973    0.130981    0.191599    -10.948210    -10.382455    0.000000    0.000000    0.000000    
